<svg width="103" height="101" viewBox="0 0 103 101" fill="none" xmlns="http://www.w3.org/2000/svg">
<path d="M79.8292 2.33197C82.7892 2.33197 85.4812 0.882977 88.7292 1.52098C88.9922 1.57298 90.3772 2.24597 90.6352 2.33197C91.1682 2.50997 91.7072 2.40697 92.2812 2.60897C93.5272 3.04697 94.7532 4.06296 95.8412 4.82296C99.2402 7.19696 101.617 11.525 102.148 15.358C102.808 20.127 102.281 25.811 100.622 30.084C99.9642 31.778 99.6852 33.555 98.8842 35.291C97.6772 37.906 96.1392 40.317 94.9352 42.94C91.2942 50.877 85.2282 57.716 80.1352 64.815C74.4242 72.775 66.7142 79.345 60.9432 87.364C58.3612 90.952 55.7372 95.293 52.7532 98.894C51.1602 100.817 48.4122 101.362 46.4132 100.331C44.2892 99.235 42.7612 96.176 41.0862 94.371C39.0942 92.224 37.5282 89.861 35.3762 87.85C33.3232 85.932 31.3382 84.124 29.6002 81.924C26.3692 77.833 23.4492 73.763 20.3322 69.91C17.6312 66.571 15.0702 63.201 12.5872 59.68C9.82819 55.769 6.3122 51.874 4.6262 47.366C4.2232 46.287 3.8472 45.194 3.4322 44.123C2.8512 42.623 2.7022 41.78 2.3732 40.247C2.2562 39.702 1.7522 38.692 1.5412 37.996C1.1262 36.628 1.0272 35.723 0.887198 34.123C0.742198 32.465 0.229198 31.598 0.0461982 30.023C-0.176802 28.108 0.459199 27.307 0.850199 25.751C1.0632 24.902 0.736199 23.911 0.850199 23.038C0.964199 22.158 1.3942 22.318 1.5832 21.626C2.0342 19.976 2.3752 18.765 3.1742 17.185C5.8132 11.965 9.5202 6.21397 14.9042 3.48697C16.4682 2.69497 18.0792 1.57898 19.7422 1.03598C20.9592 0.638977 22.5582 0.557977 23.7122 0.298977C26.9832 -0.438023 29.5022 0.27397 32.4652 1.49197C37.2722 3.46697 41.0302 6.22098 44.7222 9.85498C46.9272 12.026 49.2682 14.036 50.3372 17.023C50.7752 18.248 51.1562 19.372 51.5352 20.525C51.7122 21.065 51.4082 21.775 51.5352 22.331C51.7162 23.126 52.4152 23.542 52.5912 24.483C54.7812 22.522 55.3332 19.381 57.4452 17.283C60.1942 14.552 62.8472 11.276 65.9842 9.02498C68.2072 7.42998 70.5062 6.52298 72.9052 5.22598C75.0682 4.05798 77.9422 3.79597 79.8292 2.33197C80.7522 2.33197 79.3992 2.66497 79.8292 2.33197ZM57.2652 85.734C58.3072 85.061 58.7832 83.808 59.7812 82.81C60.3792 82.212 63.4602 79.853 61.5732 79.262C60.7822 79.014 60.3442 79.829 59.8822 80.312C60.0092 80.942 59.8202 81.399 59.3162 81.685C58.9052 82.047 58.4942 82.408 58.0832 82.77C57.9382 82.992 57.6832 84.2 57.6302 84.343C57.4502 84.827 56.9412 84.973 57.4942 85.641C57.0132 85.778 56.2442 85.783 56.7822 86.476C56.9422 86.229 57.1032 85.981 57.2652 85.734C57.5372 85.558 57.1602 86.03 57.2652 85.734ZM22.1052 11.33C22.1052 10.201 22.2612 8.28998 20.5722 8.22798C20.5722 8.87598 20.6742 12.003 22.1052 10.469C22.1052 11.891 22.1422 15.448 23.0522 16.489C23.3922 16.878 23.7662 17.391 24.3212 16.702C24.9082 15.974 24.1022 16.068 23.9762 15.267C23.7572 13.872 23.3152 12.271 22.1052 11.33C22.8082 11.877 22.1052 10.648 22.1052 11.33ZM74.4362 65.302C76.3472 65.02 77.6382 61.562 78.6202 60.255C79.9112 58.538 81.3022 56.841 82.5102 55.085C83.8522 53.135 85.4282 51.126 86.6982 49.078C87.4992 47.788 88.3752 46.401 89.1052 45.085C90.0742 43.338 90.1092 42.945 88.7082 41.543C85.5492 45.636 84.0582 51.128 80.9172 55.006C79.3982 56.881 78.0042 58.631 76.6962 60.736C75.9662 61.911 75.1982 62.938 74.4362 64.073C75.0012 64.934 74.8812 65.355 74.0752 65.337C73.6592 65.448 73.6182 65.681 73.9522 66.034C74.1132 65.79 74.2742 65.546 74.4362 65.302C75.3282 65.17 74.3312 65.589 74.4362 65.302ZM33.9672 4.74997C32.1332 5.09397 30.5622 3.48497 29.0942 3.18797C27.5602 2.87797 22.0982 3.23297 22.1042 4.95297C22.1092 6.29197 25.6082 8.07297 26.7052 8.29097C28.3832 8.62397 27.6072 7.62797 29.0222 7.34897C29.3992 7.27497 29.9232 7.57198 30.1612 7.52498C30.3802 7.94498 30.6962 8.11898 31.1092 8.04698C31.6552 8.14398 32.0692 7.88598 32.3492 7.27098C33.9942 7.05398 34.4372 7.67997 35.5462 8.79997C36.0482 9.30697 36.5502 9.81297 37.0522 10.32C37.5342 11.284 38.2782 11.621 39.2842 11.329C41.0402 11.921 40.9242 11.822 42.3992 13.287C44.2412 15.116 45.4132 17.067 46.9062 19.166C47.4342 19.909 49.1232 23.474 49.6772 23.436C51.2932 20.721 46.2632 14.634 44.7342 13.095C43.2162 11.568 41.5922 10.213 39.8802 8.93297C38.0042 7.52897 35.4982 6.54697 33.9672 4.74997C34.8192 5.74897 32.2792 5.06697 33.9672 4.74997ZM14.7462 49.347C14.7462 47.305 13.9332 45.891 13.5332 43.996C13.0192 43.568 12.8782 43.011 13.1112 42.326C13.3482 41.487 13.0912 40.834 12.3382 40.369C12.1682 39.835 11.7112 38.48 11.6362 38.061C11.1842 35.518 10.7012 33.23 9.8112 30.874C9.4112 29.815 9.36119 28.633 8.97519 27.566C8.52619 26.32 8.1962 24.944 7.9272 23.5C6.3732 23.833 6.4422 24.193 6.7372 25.803C7.5442 26.276 7.7802 26.985 7.4452 27.931C7.4452 28.894 7.4452 29.856 7.4452 30.818C7.9872 33.737 8.5552 36.724 9.0192 39.729C9.0252 40.372 9.3002 40.847 9.8422 41.155C9.8422 41.973 9.8422 42.792 9.8422 43.611C10.5572 44.033 10.8462 44.643 10.7092 45.443C10.8152 46.252 11.1182 46.984 11.6172 47.64C12.5232 49.601 14.0312 54.549 16.1982 55.383C16.9622 53.684 15.8152 53.855 15.5212 52.491C15.2242 51.113 15.9082 50.51 14.7462 49.347C15.0952 49.696 14.7462 48.621 14.7462 49.347ZM29.4642 31.375C29.4642 32.192 29.7572 32.787 29.8822 33.426C29.9782 33.917 30.1182 35.133 30.3012 35.696C30.6082 36.645 30.8602 37.471 31.1562 38.567C31.7732 40.854 32.5892 43.118 33.3522 45.456C34.1562 47.921 34.3422 50.473 35.3862 52.759C35.7562 53.569 36.3742 55.741 36.8122 56.324C38.4382 58.486 38.0322 56.109 37.8622 55.147C37.6462 53.92 37.4162 52.475 37.2072 51.367C37.1112 50.857 36.9792 50.062 36.8582 49.433C36.6372 48.278 36.3682 47.862 36.0212 46.884C35.5262 45.49 35.6262 44.032 35.1852 42.605C34.9232 41.758 34.6722 40.714 34.3472 39.894C34.3472 39.505 34.3472 39.115 34.3472 38.726C34.0682 38.409 33.7882 38.093 33.5092 37.776C33.0362 35.919 33.0592 34.371 32.7512 32.484C32.5282 31.115 32.1072 30.112 31.8352 28.69C31.6792 27.871 32.3232 27.037 31.2462 26.928C30.0782 26.809 30.5192 27.714 29.9052 28.376C29.7202 28.576 28.7692 28.531 28.6652 28.774C28.2382 29.78 28.8702 30.74 29.4642 31.375C29.4642 31.905 29.1832 31.075 29.4642 31.375ZM29.4572 70.788C29.0742 72.179 27.9012 72.423 28.3542 73.666C28.6142 74.379 29.8062 74.882 30.2912 75.504C30.2912 75.783 30.2912 76.061 30.2912 76.34C30.7982 76.847 31.3052 77.354 31.8132 77.862C33.2142 79.238 36.1092 84.679 38.3252 83.828C37.5542 82.325 36.7272 80.838 36.0072 79.311C36.0072 78.862 36.0072 78.414 36.0072 77.965C35.3032 77.265 34.5992 76.565 33.8962 75.866C32.4452 74.077 31.8142 70.371 29.5792 69.496C29.5372 69.926 29.4972 70.357 29.4572 70.788C29.4512 70.855 29.0702 72.191 29.4572 70.788ZM21.2872 64.883C22.3132 65.909 23.5212 66.936 24.4522 68.048C25.0992 68.82 24.8192 69.485 26.0032 70.16C26.2962 68.366 24.6512 66.159 23.8092 64.515C22.5752 62.104 21.7992 59.714 20.6132 57.271C20.4172 56.866 19.6202 54.917 19.3122 54.888C18.5102 54.813 18.6982 57.613 18.8332 58.294C19.0092 59.182 19.5272 59.654 19.5972 60.791C18.7382 61.273 18.6422 61.709 19.3092 62.098C19.5792 62.367 19.8502 62.635 20.1202 62.904C20.5742 63.921 21.2872 63.554 21.2872 64.883C22.3422 65.938 21.2872 64.612 21.2872 64.883ZM21.2872 37.095C21.2872 38.009 23.4722 43.431 24.4592 40.97C24.5112 40.84 23.8322 37.763 23.7252 37.309C23.4902 36.308 23.1902 35.276 22.9362 34.237C22.7522 33.484 22.2272 33.192 22.0622 32.416C21.9242 31.765 22.1972 31.028 22.0622 30.377C21.8912 29.55 20.8802 26.507 19.6852 27.956C18.8042 29.025 20.3142 30.594 20.4632 31.353C20.8702 33.421 19.7402 35.454 21.2872 37.095C21.2872 37.623 21.0072 36.798 21.2872 37.095ZM81.0172 9.74197C78.8472 9.60697 76.6982 11.425 75.0002 12.645C74.2292 13.199 67.5332 18.515 70.0122 19.429C71.2882 18.039 72.2692 16.612 73.4252 15.171C74.5952 13.712 74.8242 13.955 76.0372 14.264C76.9512 14.496 76.3192 16.296 78.1942 14.475C79.3512 13.351 80.2512 11.142 81.0172 9.74197C80.4662 10.749 80.4612 9.70697 81.0172 9.74197ZM84.7012 13.735C82.1772 16.259 75.7772 21.087 77.9802 25.216C79.5852 24.456 80.8472 21.392 81.6372 19.842C82.3762 18.391 85.7152 15.241 84.7012 13.735C85.2032 14.48 83.3112 15.125 84.7012 13.735ZM57.5532 21.879C55.5172 22.162 51.8422 30.024 54.0142 30.121C54.8462 30.158 56.3042 26.959 56.8242 26.202C58.0482 24.423 59.3842 23.622 57.5532 21.879C57.9882 22.294 56.5592 22.017 57.5532 21.879ZM9.7002 19.497C9.8872 17.959 10.2562 16.495 10.7012 15.037C10.9942 14.078 12.3242 12.201 11.0212 11.374C9.5302 12.503 8.2702 15.268 7.5332 16.827C6.1822 19.684 6.7232 19.497 9.7002 19.497C9.8072 18.612 8.5822 19.497 9.7002 19.497ZM61.3532 28.072C61.3532 23.987 58.5372 28.404 57.6162 30.065C57.1202 30.96 54.6512 33.777 55.7722 34.8C56.9512 33.622 58.5342 32.434 59.4952 31.077C60.2762 29.976 60.4602 29.021 61.3532 28.072C61.3532 27.541 61.0742 28.369 61.3532 28.072ZM48.0012 76.608C48.7342 74.686 48.2712 72.094 48.2712 70.034C48.2712 68.236 48.1602 65.454 46.1132 67.857C44.9322 69.244 46.2372 71.528 46.6262 72.831C46.7782 73.34 46.9722 76.559 48.0012 76.608C48.0932 76.366 47.1622 76.568 48.0012 76.608ZM42.5462 68.148C42.5462 68.759 42.5462 69.371 42.5462 69.983C42.4072 70.622 42.6692 71.102 43.3302 71.424C43.5172 72.076 43.0502 72.83 43.6812 73.363C44.6792 74.205 43.4212 69.313 43.4202 69.31C43.2632 68.435 43.6172 67.443 43.4202 66.577C43.3132 66.107 42.6652 65.704 42.5352 65.12C41.9192 62.36 41.8322 59.742 40.4412 57.056C39.9902 57.979 40.0002 59.125 40.2202 60.107C40.8642 60.386 41.1232 60.825 40.9952 61.423C40.9952 61.973 40.9952 62.524 40.9952 63.074C41.2512 64.408 41.4602 67.097 42.5462 68.148C42.5462 68.972 42.3592 67.966 42.5462 68.148ZM82.2272 26.824C81.0492 28.471 76.5252 34.846 77.1382 36.495C78.6662 34.967 81.0722 33.283 82.1842 31.448C83.0532 30.013 82.3342 28.504 83.4912 27.053C83.0692 26.976 82.6482 26.9 82.2272 26.824C82.5702 26.886 81.2332 28.213 82.2272 26.824ZM89.0842 22.303C89.1292 20.857 90.4722 19.636 90.7152 18.272C91.0902 16.162 90.7402 14.934 89.2722 13.553C89.1272 14.734 89.1912 15.888 89.1682 17.071C89.1882 17.598 89.1752 18.123 89.1282 18.647C89.2012 19.215 88.9422 19.631 88.3512 19.897C88.1622 20.779 87.9752 22.144 87.8892 22.876C87.8012 23.624 87.6932 23.849 87.9182 24.726C88.3072 23.918 88.6962 23.111 89.0842 22.303C89.1122 21.429 88.4692 23.582 89.0842 22.303ZM39.2772 22.787C39.2742 26.625 39.0892 30.368 41.2172 33.538C42.0222 32.628 41.5222 33.344 41.7282 31.602C41.7302 30.932 41.7302 30.263 41.7292 29.593C41.8772 28.891 41.5922 28.356 40.8752 27.987C40.6452 27.045 40.8232 26.173 40.5232 25.221C40.2642 24.395 39.6672 23.548 39.2772 22.787C40.0352 24.267 39.2752 25.404 39.2772 22.787ZM82.6302 5.94796C82.5402 6.20596 81.3842 4.93298 81.0902 6.13298C81.7082 6.42498 82.3542 6.52397 83.0302 6.42897C83.5972 6.82697 84.0122 7.34497 84.2772 7.98497C84.9162 8.53997 85.2292 9.47797 86.3742 8.65597C86.8862 8.28797 87.0432 5.32398 86.4592 4.78398C85.3502 3.75998 83.3682 5.24596 82.6302 5.94796C83.2782 5.33196 82.5172 6.27096 82.6302 5.94796ZM51.6162 87.453C50.8262 85.77 50.3242 84.119 49.4942 82.446C48.9482 83.004 48.1862 85.889 48.2342 86.594C48.3342 88.074 49.8342 89.39 51.0462 89.925C50.1602 88.699 51.2152 88.476 51.6162 87.453C51.2652 88.348 51.2542 86.682 51.6162 87.453ZM45.8172 51.466C45.8172 54.225 46.2132 56.336 46.6362 58.761C46.8682 60.087 46.4952 61.045 47.4522 62.151C47.4522 59.834 47.4472 57.516 47.4522 55.199C47.4562 53.357 48.0572 51.466 45.8172 51.466C46.4602 51.466 45.8172 53.301 45.8172 51.466ZM50.7232 37.41C50.7232 35.064 49.6162 31.115 47.8662 29.309C46.9732 30.301 48.0212 32.885 48.2702 34.03C48.3642 34.46 48.8902 36.107 49.0952 36.387C49.8192 37.374 48.8542 37.41 50.7232 37.41C50.7232 36.536 50.0702 37.41 50.7232 37.41ZM73.2552 8.05197C72.6122 9.14097 70.6142 9.36497 69.7062 9.95297C69.4752 10.103 67.1332 11.761 67.1312 11.704C67.1782 13.105 71.3312 11.305 71.9682 10.858C72.3802 10.568 75.1002 8.67998 75.1542 8.35898C74.6182 7.78898 73.8952 8.19897 73.2552 8.05197C73.8842 8.19597 72.6832 9.02097 73.2552 8.05197ZM55.4372 48.911C53.9342 49.678 53.3822 50.768 53.1772 52.242C53.0572 53.105 52.8212 55.239 54.2982 54.571C55.7002 53.937 55.0202 50.111 56.4392 49.21C56.1052 49.11 55.7712 49.01 55.4372 48.911C55.7712 49.01 54.5112 49.384 55.4372 48.911ZM68.1582 38.237C70.2932 37.104 70.6932 34.601 71.9702 32.768C69.5002 32.284 67.7582 36.071 68.1582 38.237C70.3552 37.071 67.9552 37.136 68.1582 38.237ZM5.4112 36.622C6.8182 34.955 5.2092 32.217 4.9312 30.729C4.7342 29.673 5.1312 28.727 4.3682 27.836C3.7392 28.582 3.9022 32.228 4.1152 33.072C4.2162 33.473 4.9772 36.407 5.4112 36.622C5.5842 36.417 4.4612 36.151 5.4112 36.622ZM14.7462 7.64598C15.4342 8.33398 16.1222 9.02197 16.8092 9.70997C19.0222 7.21797 17.1592 5.23398 14.7462 7.64598C15.4202 8.31998 15.1312 7.26198 14.7462 7.64598ZM58.3622 56.174C58.9382 56.132 60.4132 53.09 60.3102 52.67C59.9732 51.299 56.9462 54.74 58.3622 56.174C59.1742 56.115 57.8072 55.612 58.3622 56.174ZM48.4672 94.803C48.1792 95.568 49.0802 97.137 49.2902 97.092C51.3412 95.558 50.9112 94.803 48.4672 94.803C49.1542 94.803 47.9352 96.215 48.4672 94.803ZM32.3492 59.548C32.8572 58.678 32.1792 56.678 31.2772 56.062C29.1652 54.622 31.6512 59.001 32.3492 59.548C32.4792 59.325 31.1752 58.628 32.3492 59.548ZM14.6642 20.388C14.8012 20.995 15.2932 24.863 16.4022 22.146C17.0122 20.654 15.6922 20.388 14.6642 20.388C15.3822 20.388 14.8852 21.369 14.6642 20.388ZM22.5582 57.084C23.6892 55.867 22.2392 54.076 21.6532 53.058C20.5222 54.275 21.9722 56.066 22.5582 57.084C23.1862 56.407 22.1462 56.369 22.5582 57.084ZM41.1752 87.581C41.8592 88.254 42.5432 88.928 43.2272 89.601C43.5062 88.164 42.3852 87.128 41.1752 87.581C41.8312 88.226 41.2422 87.556 41.1752 87.581ZM95.2032 32.513C96.2242 31.791 96.6212 30.373 96.1392 29.365C95.2782 30.149 94.0262 31.226 95.2032 32.513C95.8972 32.023 94.6182 31.874 95.2032 32.513ZM47.7662 43.348C48.9762 42.049 47.8702 41.581 46.7692 41.752C47.1022 42.284 47.4342 42.816 47.7662 43.348C48.4252 42.641 47.4382 42.822 47.7662 43.348ZM66.8372 22.602C66.2872 23.017 65.8662 23.534 65.5742 24.155C67.0592 25.39 66.9792 23.404 66.8372 22.602C66.9442 23.207 66.3102 23.235 66.8372 22.602ZM39.2742 55.889C39.8212 56.476 40.3662 56.476 40.9132 55.889C40.3662 55.302 39.8212 55.302 39.2742 55.889ZM16.6722 26.744C16.8482 26.647 17.0232 26.55 17.1992 26.453C16.8882 26.142 16.1352 26.207 16.6722 26.744C16.8432 26.649 16.5632 26.635 16.6722 26.744ZM23.0412 58.224C23.1382 58.4 23.2352 58.575 23.3322 58.751C23.6432 58.439 23.5782 57.687 23.0412 58.224C23.1502 58.115 23.1352 58.395 23.0412 58.224ZM38.3402 58.46C38.2432 58.284 38.1462 58.109 38.0492 57.933C37.7382 58.244 37.8032 58.997 38.3402 58.46C38.2462 58.288 38.2312 58.569 38.3402 58.46ZM55.5112 41.053C54.9742 40.516 54.9092 41.269 55.2202 41.58C55.3172 41.404 55.4142 41.228 55.5112 41.053C55.4172 41.224 55.4022 40.944 55.5112 41.053Z" fill="#CE3E48"/>
</svg>
