<svg width="119" height="111" viewBox="0 0 119 111" fill="none" xmlns="http://www.w3.org/2000/svg">
<g clip-path="url(#clip0_304_35)">
<path d="M14.12 40.361C12.943 39.063 13.817 39.534 13.344 38.316C13.133 37.772 12.704 36.779 12.504 36.199C12.125 35.099 11.985 33.903 11.771 32.789C11.465 31.193 11.256 30.131 10.966 28.634C10.817 27.867 11.066 27.027 10.966 26.251C10.774 24.753 10.325 24.1 10.143 22.559C10.045 21.723 10.064 20.413 10.143 19.633C10.305 18.042 10.684 18.439 10.841 17.482C11.133 15.7 10.744 14.405 11.425 12.686C12.773 9.28804 14.443 6.64004 17.741 5.00504C22.847 2.47404 29.983 4.10404 34.611 6.34304C39.172 8.55004 44.181 11.62 47.871 15.182C50.09 17.324 52.361 18.949 54.676 21.225C56.834 23.347 58.363 25.771 60.537 27.837C61.85 29.086 62.014 29.482 63.559 28.535C64.896 27.715 66.106 25.984 67.22 24.88C69.11 23.006 71.304 21.182 73.418 19.509C77.015 16.661 80.796 13.751 84.855 11.589C88.904 9.43304 93.548 6.08804 98.268 5.50104C100.993 5.16204 105.07 5.11504 107.414 6.43604C108.57 7.08704 109.734 8.14004 110.547 9.19904C111.123 9.95004 111.06 10.089 111.439 10.84C111.972 11.897 111.931 12.406 112.28 13.569C113.15 16.468 113.343 19.69 112.703 22.735C112.131 25.456 111.7 28.174 110.662 30.798C109.926 32.658 109.817 34.573 109.002 36.464C107.701 39.484 106.384 42.608 104.905 45.578C102.567 50.273 100.098 55.246 97.144 59.497C91.033 68.291 85.606 77.302 78.13 85.133C76.138 87.22 74.513 89.473 72.478 91.56C69.738 94.371 66.924 97.11 64.16 99.897C62.31 101.762 59.568 105.493 56.751 104.146C55.834 103.708 54.125 102.196 53.3 101.581C52.183 100.747 51.198 99.462 50.197 98.478C47.84 96.164 46.53 93.9091 44.211 91.6281C41.892 89.3481 39.77 86.633 37.757 84.021C34.357 79.61 31.144 74.755 28.324 70.027C25.331 65.01 22.432 59.808 19.732 54.454C17.477 49.99 15.201 45.146 14.12 40.361C14.279 41.064 13.903 40.121 14.12 40.361ZM61.484 38.064C61.621 38.545 61.626 39.314 62.319 38.777C61.918 38.435 61.343 37.414 60.835 37.808C61.003 38.03 61.22 38.115 61.484 38.064C61.665 38.698 61.28 38.188 61.484 38.064ZM74.07 24.299C73.589 24.436 72.82 24.441 73.358 25.134C75.64 22.458 78.556 21.264 81.618 19.197C84.862 17.008 88.363 15.299 91.961 13.923C93.81 13.216 95.864 12.408 97.652 12.125C99.118 11.893 100.915 12.063 102.33 12.384C102.507 12.572 102.684 12.76 102.861 12.948C103.593 12.948 104.324 12.948 105.056 12.948C105.999 12.692 106.697 13.027 107.15 13.955C108.258 14.446 108.406 15.066 107.594 15.815C107.295 17.232 106.653 17.463 106.507 19.048C106.507 19.974 106.507 20.901 106.507 21.827C106.815 22.792 106.569 23.552 105.767 24.105C105.704 25.332 105.684 26.211 107.142 26.016C108.8 25.795 108.012 24.375 108.25 23.097C109.047 22.64 109.287 21.952 108.97 21.033C108.97 20.142 108.97 19.251 108.97 18.36C108.97 15.896 109.055 12.573 107.074 10.669C103.145 6.89304 97.093 9.61404 92.815 11.227C89.274 12.562 85.636 14.833 82.445 16.988C80.744 18.137 79.404 19.934 77.928 21.12C77.366 21.035 76.839 21.13 76.346 21.404C75.88 21.737 75.589 22.187 75.475 22.755C75.141 23.052 73.739 23.67 74.07 24.299C73.821 23.826 73.436 24.479 74.07 24.299ZM82.836 48.922C81.904 49.525 82.505 49.953 82.018 50.557C81.712 50.938 81.015 50.941 80.667 51.428C80.334 51.894 80.633 52.631 80.383 53.01C80.134 53.387 79.335 53.374 79.032 53.881C78.716 54.41 78.947 54.958 78.748 55.463C78.656 55.696 77.76 57.095 77.669 57.227C76.481 58.952 75.059 60.599 73.967 62.498C73.677 63.003 73.673 63.411 73.434 63.808C73.331 63.98 72.598 64.625 72.42 64.838C72.328 64.949 72.123 66.139 72.14 66.067C72.038 66.508 70.949 65.837 71.722 66.833C73.105 65.212 73.872 63.846 75.27 62.292C76.692 60.71 77.241 58.545 78.157 56.974C78.326 56.684 78.627 55.618 78.748 55.461C79.316 55.347 79.766 55.056 80.099 54.59C80.373 54.097 80.468 53.57 80.383 53.008C80.891 52.236 83.647 50.269 82.608 49.013C83.089 48.876 83.858 48.871 83.32 48.178C83.159 48.427 82.998 48.674 82.836 48.922C82.94 48.625 82.564 49.098 82.836 48.922ZM74.659 70.181C73.375 70.5 73.74 70.958 73.042 71.761C73.036 72.052 73.03 72.343 73.023 72.635C72.573 72.696 72.217 72.896 71.954 73.234C71.686 73.879 70.744 75.625 70.903 75.83C71.507 75.122 72.153 74.923 72.738 74.217C72.961 73.86 73.053 73.4791 73.013 73.0721C72.891 72.5431 73.166 72.284 73.837 72.297C74.125 71.609 75.366 69.73 75.142 69.44C74.982 69.686 74.821 69.934 74.659 70.181C74.764 69.884 73.368 70.501 74.659 70.181ZM51.04 46.697C50.903 46.216 50.898 45.447 50.205 45.984C51.045 46.7 50.835 48.692 52.462 48.748C52.52 48.118 52.281 46.286 51.04 46.697C51.753 46.461 50.859 46.063 51.04 46.697ZM51.04 54.056C50.903 53.575 50.898 52.806 50.205 53.344C51.23 54.218 50.965 58.602 53.16 58.585C53.9 57.433 51.713 54.967 51.04 54.056C51.971 55.318 50.859 53.421 51.04 54.056ZM68.119 61.188C69.988 60.428 71.711 56.395 71.024 54.627C70.008 55.434 68.731 57.601 68.387 58.833C68.134 59.74 68.387 60.096 68.347 61.093C68.331 61.488 66.804 60.859 67.634 61.928C67.795 61.682 67.957 61.435 68.119 61.188C68.347 61.095 68.014 61.483 68.119 61.188ZM61.577 95.526C61.1 95.448 59.725 96.343 59.099 96.345C59.565 96.343 56.634 95.924 57.004 95.665C56.014 96.359 57.029 98.4031 57.909 98.7641C60.248 99.7231 61.387 96.2131 62.186 95.3391C62.922 94.5341 64.753 93.579 66.045 92.287C69.053 89.278 71.278 86.2501 74.142 83.3651C75.738 81.7581 76.877 80.4121 77.113 78.1561C77.113 77.4981 77.113 76.8401 77.113 76.1821C76.96 75.4971 77.234 74.982 77.935 74.635C78.025 74.08 78.053 73.116 77.609 72.717C75.171 74.256 74.278 77.509 72.784 79.776C71.532 81.676 70.298 83.555 69.023 85.463C68.003 86.989 67.034 88.252 66.1 89.724C65.292 90.999 61.533 94.336 61.577 95.526C61.556 94.963 60.906 95.417 61.577 95.526ZM97.554 31.751C98.61 31.751 100.381 29.371 101.103 28.599C102.361 28.689 102.816 28.2 102.468 27.133C102.591 26.435 102.459 25.787 102.073 25.189C100.631 26.631 99.396 27.893 98.482 29.685C98.107 30.42 97.542 31.406 97.189 31.907C96.474 32.92 95.533 32.672 96.314 34.201C97.331 33.203 97.554 33.274 97.554 31.751C97.69 31.751 97.554 32.157 97.554 31.751ZM16.6 33.79C16.716 37.894 18.741 42.555 20.607 46.165C21.788 48.449 22.531 50.853 23.714 53.25C25.144 56.148 26.931 58.773 28.441 61.573C30.874 66.087 33.528 70.672 36.511 74.836C39.594 79.14 43.474 83.0851 46.465 87.4771C47.156 85.7971 45.309 84.422 44.405 82.853C43.574 81.41 42.674 79.8221 41.849 78.1991C40.114 74.7851 38.507 71.575 36.043 68.623C31.767 63.5 28.465 57.442 25.527 51.204C24.222 48.433 23.169 45.803 22.306 42.919C21.903 41.575 21.275 40.033 20.692 38.728C19.935 37.036 19.695 35.064 19.039 33.336C19.039 32.947 19.039 32.558 19.039 32.169C18.759 31.853 18.478 31.537 18.198 31.221C18.198 30.429 18.198 29.638 18.198 28.846C17.944 28.592 17.69 28.338 17.436 28.084C17.248 27.058 17.599 25.941 17.436 24.91C17.179 23.287 16.876 24.906 16.69 22.512C16.585 21.164 16.69 19.719 16.69 18.366C16.69 17.922 16.69 17.478 16.69 17.034C16.38 16.097 16.643 15.397 17.477 14.933C18.053 13.459 17.952 11.239 19.101 9.98704C15.349 8.69804 14.165 18.65 14.165 20.816C14.165 23.526 14.199 25.724 14.975 28.083C15.515 29.724 15.318 32.508 16.6 33.79C16.638 35.116 16.23 33.42 16.6 33.79ZM57.533 38.746C55.478 36.69 53.859 34.461 51.869 32.301C49.983 30.254 48.047 28.002 46.266 25.864C45.335 24.746 44.682 23.498 43.694 22.403C43.039 21.726 42.37 21.063 41.686 20.416C41.179 19.464 40.418 19.138 39.401 19.437C37.954 18.849 34.002 17.785 32.392 18.929C33.708 20.245 34.994 22.023 36.525 23.062C37.345 23.619 38.46 23.875 39.471 24.287C40.368 24.652 40.608 24.541 41.425 25.089C41.975 25.459 42.464 26.128 42.934 26.598C44.085 27.749 45.185 28.987 46.375 30.094C48.691 32.248 51.192 34.054 53.47 36.317C54.412 37.254 56.974 41.211 57.533 38.746C57.432 39.191 57.048 38.261 57.533 38.746ZM100.007 37.557C100.007 39.69 97.047 42.658 95.901 44.717C94.493 47.246 92.703 49.312 91.09 51.706C89.543 54.002 88.293 56.743 86.976 59.38C85.995 61.345 85.28 63.451 84.483 65.356C83.872 66.818 82.115 68.508 83.187 70.146C85.582 68.635 87.612 63.528 88.991 61.12C90.37 58.712 91.554 56.295 93.005 53.906C94.617 51.252 96.361 48.44 97.794 45.816C98.661 44.228 99.55 42.699 100.494 41.149C101.549 39.418 102.67 37.557 100.007 37.557C100.663 37.557 100.007 38.155 100.007 37.557ZM30.505 46.06C31.288 46.468 32.744 48.955 33.293 49.701C33.954 50.598 34.79 52.886 35.647 53.537C37.507 54.951 37.986 53.672 37.26 51.68C36.641 49.983 35.614 48.383 34.724 46.822C34.115 45.754 33.328 44.495 32.789 43.403C32.128 42.064 31.658 40.518 30.901 39.036C30.223 37.709 29.585 36.421 29.013 35.034C28.36 33.451 28.228 31.708 26.409 31.894C27.62 33.766 28.01 36.989 28.566 39.152C29.19 41.578 30.505 43.62 30.505 46.06C31.538 46.596 30.505 45.517 30.505 46.06ZM56.572 72.129C55.021 70.851 54.735 68.696 53.284 67.688C52.784 67.34 52.093 67.544 51.45 67.029C51.142 66.782 50.331 65.08 50.107 64.703C48.908 62.679 46.704 57.448 44.487 56.429C44.893 57.718 44.681 58.41 45.35 59.77C46.021 61.133 46.624 62.593 47.346 63.921C48.386 65.833 49.383 67.431 50.492 69.308C51.542 71.085 52.759 72.678 53.891 74.397C54.334 75.071 54.58 76.802 55.783 76.692C57.271 76.556 56.572 73.282 56.572 72.129C56.572 73.606 55.352 71.125 56.572 72.129ZM22.071 14.728C21.523 14.94 21.092 15.291 20.777 15.783C20.865 16.834 20.38 17.307 19.319 17.2C18.142 18.882 18.832 19.441 19.115 21.147C19.556 23.805 19.838 25.976 21.161 28.54C22.389 26.05 19.929 24.448 20.694 21.922C21.118 20.522 22.038 20.259 22.329 18.682C22.489 17.817 22.618 15.4 22.071 14.728C22.165 14.843 21.401 14.844 22.071 14.728ZM55.035 89.178C56.029 88.357 57.886 86.548 55.913 85.744C55.522 85.585 54.283 86.479 53.733 86.538C52.725 86.646 52.085 86.4451 51.362 85.7231C50.053 87.6811 55.035 92.772 55.035 89.178C55.533 88.766 55.035 89.665 55.035 89.178ZM64.03 50.148C62.738 48.856 60.259 46.068 59.975 49.265C59.838 50.806 61.681 53.035 62.903 53.742C63.664 52.492 64.03 51.581 64.03 50.148C64.03 50.684 63.083 49.201 64.03 50.148ZM25.911 15.397C28.577 15.397 32.461 15.66 28.119 13.395C27.172 12.901 25.642 11.476 24.989 12.503C24.48 13.303 25.579 14.43 25.911 15.397C27.37 15.397 25.758 14.952 25.911 15.397ZM71.804 35.015C70.931 35.888 68.378 37.627 68.037 38.782C67.651 40.089 68.551 41.082 69.59 40.416C70.434 39.873 72.635 35.913 71.804 35.015C72.858 36.155 70.538 36.281 71.804 35.015ZM58.939 45.054C57.313 43.435 55.522 40.51 53.168 40.976C55.519 42.615 55.611 46.424 58.939 45.054C57.997 45.442 57.216 43.339 58.939 45.054ZM76.656 48.066C77.616 47.437 81.136 43.304 80.011 42.526C79.841 42.409 74.522 46.438 76.656 48.066C78.454 46.888 76 47.566 76.656 48.066ZM43.142 62.841C42.058 64.144 44.685 69.265 46.032 69.2C46.044 67.194 44.855 64.106 43.142 62.841C44.774 64.046 42.531 63.575 43.142 62.841ZM57.488 54.821C57.488 55.633 58.648 59.605 59.941 57.591C60.297 57.037 59.69 56.051 59.449 55.686C58.725 54.586 58.814 54.592 57.488 54.821C58.016 54.73 57.488 55.584 57.488 54.821ZM82.378 59.502C83.578 58.844 84.652 56.835 84.16 55.602C83.285 56.358 80.67 58.118 82.378 59.502C83.615 58.824 81.725 58.973 82.378 59.502ZM58.72 61.954C58.141 62.55 58.16 63.134 58.778 63.704C58.974 63.014 59.775 62.958 59.817 62.155C59.452 62.089 59.086 62.022 58.72 61.954C59.085 62.022 58.187 62.544 58.72 61.954ZM65.508 41.677C64.906 41.907 64.418 42.283 64.043 42.805C65.254 44.058 65.665 42.501 65.508 41.677C65.579 42.049 64.748 41.824 65.508 41.677ZM35.003 26.025C34.416 26.572 34.416 27.117 35.003 27.664C35.59 27.117 35.59 26.572 35.003 26.025ZM33.249 12.244C32.712 12.781 33.465 12.846 33.776 12.535C33.6 12.438 33.425 12.341 33.249 12.244C33.421 12.339 33.14 12.354 33.249 12.244ZM26.944 30.815C27.481 30.278 26.729 30.213 26.417 30.524C26.593 30.621 26.768 30.718 26.944 30.815C27.053 30.706 26.773 30.72 26.944 30.815ZM22.211 31.46C22.114 31.284 22.017 31.109 21.92 30.933C21.609 31.244 21.674 31.997 22.211 31.46C22.116 31.288 22.102 31.569 22.211 31.46ZM56.553 94.42C56.456 94.244 56.359 94.0691 56.262 93.8931C55.951 94.2041 56.016 94.957 56.553 94.42C56.458 94.249 56.443 94.529 56.553 94.42Z" fill="#CE3E48"/>
</g>
<defs>
<clipPath id="clip0_304_35">
<rect width="119" height="111" fill="white"/>
</clipPath>
</defs>
</svg>
